<?xml version="1.0" encoding="UTF-8"?>
<svg id="Layer_1" data-name="Layer 1" xmlns="http://www.w3.org/2000/svg" viewBox="0 0 127.7 366.33">
  <defs>
    <style>
      .cls-1 {
        fill: #fcff45;
      }

      .cls-1, .cls-2, .cls-3, .cls-4, .cls-5 {
        stroke: #000;
        stroke-miterlimit: 10;
      }

      .cls-2 {
        fill: #fcfc7e;
      }

      .cls-3 {
        fill: #00a204;
      }

      .cls-4 {
        fill: #5c4100;
      }

      .cls-5 {
        fill: #e3e3e3;
      }
    </style>
  </defs>
  <rect id="Stem" class="cls-3" x="50.69" y="82.83" width="23.67" height="283"/>
  <g id="Yellow_Head" data-name="Yellow Head">
    <path class="cls-1" d="m4.01,57.35c.95.86,1.84,1.76,2.72,2.69,6.92,7.23,30.48,29.73,55.8,29.73,30.16,0,56.05-31.93,56.05-31.93,0,0,17.11-24,3.11-17-3.52,2.64-6.79,6.03-9.8,6.14-.58.02-.98-.59-.72-1.11,4.83-9.56,9.51-17.4,9.51-21.03,0-5-22,12-22,12,0,0,9-19,4-24s-15,18-15,18c0,0,5-26-1-27s-10,27-10,27c0,0-3.5-34.03-10-30s-7,26-7,26c0,0-5-24-12-23s-2,25-2,25c0,0-9-21-15-18s3,23,3,23c0,0-21-23-21-11s9,26,9,26c0,0-21-9-21-4-1,3,2.18,11.49,3.32,12.52Z"/>
    <path class="cls-2" d="m60.28,86.7s27.59-.17,38.04-11.44c10.45-11.27-11.01-4.56-11.01-4.56,0,0,0-22.79-13.41-1.34-1.34-18.77-8.04-17.43-10.73,0-8.04-21.45-13.41-9.39-12.07,0-12.07-13.41-14.75-5.36-10.73,4.02-18.77-2.39-15.19,13.23,19.89,13.32Z"/>
    <path class="cls-3" d="m61.53,90.77s20.58-.13,28.37-8.53-8.21-3.4-8.21-3.4c0,0,0-17-10-1-1-14-6-13-8,0-6-16-10-7-9,0-9-10-11-4-8,3-14-1.78-11.33,9.87,14.84,9.93Z"/>
  </g>
  <path id="Brown_Head" data-name="Brown Head" class="cls-4" d="m54.69,91.83l-6-3c-23.61-11.81.41-22,.41-22,17.59-2,20.59-2,31.59,3,20,8-12,22-12,22,0,0-8,1-14,0Z"/>
  <polygon id="Main" class="cls-5" points="72.27 74.76 79.28 57.72 66.5 52.46 73.77 53.57 67.6 45.19 76.79 52.92 69.95 40.31 80.23 52.68 79.13 38.51 82.38 52.38 89.33 42.45 84.52 52.09 94.26 48.43 85.88 54.6 95.58 55.67 81.69 57.68 73.48 74.74 72.27 74.76"/>
  <g id="Seeds">
    <polygon id="Seed" class="cls-5" points="52.75 79.16 35.36 73.08 30.8 86.12 31.51 78.8 23.48 85.41 30.7 75.82 18.48 83.33 30.28 72.39 16.18 74.25 29.87 70.27 19.57 63.85 29.45 68.14 25.27 58.61 31.89 66.65 32.43 56.91 35.2 70.66 52.67 77.95 52.75 79.16"/>
    <polygon id="Seed-2" data-name="Seed" class="cls-5" points="52.67 80.33 35.93 88.04 41.72 100.59 37.14 94.83 35.96 105.17 34.49 93.25 30.92 107.14 31.81 91.08 22.96 102.21 30.03 89.83 18.17 92.38 28.25 88.59 18.63 84.65 28.97 85.83 22.59 78.45 34.14 86.42 51.77 79.51 52.67 80.33"/>
    <polygon id="Seed-3" data-name="Seed" class="cls-5" points="55.26 82.44 45.25 97.91 56.86 105.42 49.91 103 54.44 112.37 46.82 103.09 51.25 116.73 43.4 102.69 41.88 116.83 41.23 102.59 32.57 111.09 39.06 102.49 28.82 104.31 38.19 99.78 28.85 96.96 42.87 97.51 54.06 82.24 55.26 82.44"/>
    <polygon id="Seed-4" data-name="Seed" class="cls-5" points="59.5 81.11 58.79 99.52 72.6 100.05 65.39 101.52 74.07 107.26 62.78 103.17 73.54 112.65 59.63 104.58 65.54 117.51 57.72 105.6 54.61 117.32 55.8 106.62 47.92 113.41 53.66 104.73 44.19 107.06 56.53 100.39 58.37 81.54 59.5 81.11"/>
    <polygon id="Seed-5" data-name="Seed" class="cls-5" points="66.67 81.51 70.94 99.44 84.38 96.24 77.83 99.59 87.74 102.79 75.76 101.88 88.68 108.12 73.11 104.08 82.28 114.95 71.54 105.58 71.69 117.71 69.97 107.08 64.2 115.73 67.4 105.83 58.91 110.63 69 100.88 65.7 82.23 66.67 81.51"/>
    <polygon id="Seed-6" data-name="Seed" class="cls-5" points="75.07 78.42 84.61 94.18 96.43 87.02 91.23 92.22 101.63 92.23 89.96 95.03 104.16 97.01 88.1 97.94 100.16 105.48 87.06 99.84 90.92 111.34 86.03 101.75 83.19 111.76 83.2 101.35 76.58 108.51 83.21 96.15 74.36 79.4 75.07 78.42"/>
    <polygon id="Seed-7" data-name="Seed" class="cls-5" points="77.74 80.06 93.91 88.9 100.53 76.77 98.64 83.88 107.64 78.67 98.95 86.95 112.23 81.53 98.81 90.4 113.02 90.86 98.87 92.57 107.98 100.57 98.93 94.73 101.5 104.81 96.29 95.81 94.16 105.33 93.68 91.31 77.62 81.27 77.74 80.06"/>
    <polygon id="Seed-8" data-name="Seed" class="cls-5" points="77.07 78.67 95.49 78.67 95.49 64.85 97.24 71.99 102.64 63.1 98.99 74.54 108.04 63.42 100.51 77.63 113.21 71.22 101.61 79.5 113.44 82.16 102.7 81.38 109.79 88.99 100.89 83.59 103.6 92.96 96.45 80.89 77.54 79.78 77.07 78.67"/>
    <polygon id="Seed-9" data-name="Seed" class="cls-5" points="73.6 77.62 90.3 69.83 84.46 57.3 89.06 63.04 90.2 52.7 91.72 64.61 95.22 50.7 94.41 66.77 103.21 55.59 96.19 68 108.04 65.41 97.98 69.24 107.62 73.14 97.27 72.01 103.68 79.36 92.1 71.44 74.5 78.42 73.6 77.62"/>
    <polygon id="Seed-10" data-name="Seed" class="cls-5" points="65.26 72.85 64.12 54.46 50.33 55.32 57.35 53.13 48.14 48.29 59.78 51.23 48.13 42.88 62.78 49.51 55.6 37.24 64.58 48.31 66.5 36.33 66.38 47.1 73.54 39.55 68.7 48.77 77.89 45.49 66.28 53.37 66.34 72.31 65.26 72.85"/>
    <polygon id="Seed-11" data-name="Seed" class="cls-5" points="55.06 74.39 47.51 57.59 34.91 63.25 40.71 58.73 30.38 57.45 42.31 56.09 28.45 52.4 44.51 53.43 33.46 44.48 45.77 51.67 43.33 39.78 47.02 49.9 51.06 40.31 49.78 50.64 57.22 44.34 49.14 55.81 55.88 73.5 55.06 74.39"/>
  </g>
</svg>